<?xml version="1.0" encoding="UTF-8"?>
<svg width="400" height="300" xmlns="http://www.w3.org/2000/svg">
  <!-- Background -->
  <rect width="400" height="300" fill="#f0f8f0" />
  
  <!-- Sun -->
  <circle cx="70" cy="60" r="30" fill="#ffdd57" />
  <g>
    <line x1="70" y1="15" x2="70" y2="5" stroke="#ffdd57" stroke-width="4" />
    <line x1="35" y1="25" x2="25" y2="15" stroke="#ffdd57" stroke-width="4" />
    <line x1="15" y1="60" x2="5" y2="60" stroke="#ffdd57" stroke-width="4" />
    <line x1="25" y1="95" x2="15" y2="105" stroke="#ffdd57" stroke-width="4" />
    <line x1="105" y1="25" x2="115" y2="15" stroke="#ffdd57" stroke-width="4" />
    <line x1="125" y1="60" x2="135" y2="60" stroke="#ffdd57" stroke-width="4" />
    <line x1="105" y1="95" x2="115" y2="105" stroke="#ffdd57" stroke-width="4" />
  </g>
  
  <!-- Ground -->
  <rect x="0" y="250" width="400" height="50" fill="#7b5e3b" />
  <rect x="0" y="240" width="400" height="10" fill="#8B6B3D" />
  
  <!-- Soil Layers -->
  <path d="M0,250 C50,240 100,260 150,245 C200,230 250,250 300,240 C350,230 400,250 400,250 L400,300 L0,300 Z" fill="#5D4436" />
  
  <!-- Plants -->
  <!-- Plant 1 -->
  <path d="M80,250 C80,210 100,190 90,170" stroke="#228B22" stroke-width="3" fill="none" />
  <path d="M80,220 C70,210 65,200 60,190" stroke="#228B22" stroke-width="2" fill="none" />
  <path d="M80,210 C90,200 95,190 100,185" stroke="#228B22" stroke-width="2" fill="none" />
  <path d="M90,170 L85,150 L95,165" stroke="#228B22" stroke-width="2" fill="none" />
  <path d="M90,170 L98,150 L92,162" stroke="#228B22" stroke-width="2" fill="none" />
  <ellipse cx="60" cy="190" rx="10" ry="5" fill="#3D9140" />
  <ellipse cx="100" cy="185" rx="10" ry="5" fill="#3D9140" />
  <ellipse cx="85" cy="150" rx="8" ry="4" fill="#3D9140" />
  <ellipse cx="98" cy="150" rx="8" ry="4" fill="#3D9140" />
  
  <!-- Plant 2 -->
  <path d="M150,250 C150,220 160,200 155,180" stroke="#228B22" stroke-width="3" fill="none" />
  <path d="M150,230 C140,220 135,210 130,200" stroke="#228B22" stroke-width="2" fill="none" />
  <path d="M150,220 C160,210 165,205 170,195" stroke="#228B22" stroke-width="2" fill="none" />
  <path d="M155,180 L150,160 L160,175" stroke="#228B22" stroke-width="2" fill="none" />
  <ellipse cx="130" cy="200" rx="10" ry="5" fill="#3D9140" />
  <ellipse cx="170" cy="195" rx="10" ry="5" fill="#3D9140" />
  <ellipse cx="150" cy="160" rx="8" ry="4" fill="#3D9140" />
  <ellipse cx="160" cy="175" rx="6" ry="3" fill="#3D9140" />
  
  <!-- Plant 3 -->
  <path d="M220,250 C220,210 230,180 240,160" stroke="#228B22" stroke-width="3" fill="none" />
  <path d="M220,220 C210,200 205,190 200,180" stroke="#228B22" stroke-width="2" fill="none" />
  <path d="M225,200 C235,190 245,180 250,170" stroke="#228B22" stroke-width="2" fill="none" />
  <path d="M240,160 L235,140 L245,155" stroke="#228B22" stroke-width="2" fill="none" />
  <path d="M240,160 L248,140 L242,152" stroke="#228B22" stroke-width="2" fill="none" />
  <ellipse cx="200" cy="180" rx="10" ry="5" fill="#3D9140" />
  <ellipse cx="250" cy="170" rx="10" ry="5" fill="#3D9140" />
  <ellipse cx="235" cy="140" rx="8" ry="4" fill="#3D9140" />
  <ellipse cx="248" cy="140" rx="8" ry="4" fill="#3D9140" />
  
  <!-- IoT Sensor 1 -->
  <rect x="110" y="220" width="10" height="30" fill="#6a7efc" />
  <rect x="105" y="210" width="20" height="10" fill="#3f51b5" rx="2" ry="2" />
  <circle cx="115" cy="215" r="2" fill="red" />
  
  <!-- IoT Sensor 2 -->
  <rect x="270" y="220" width="10" height="30" fill="#6a7efc" />
  <rect x="265" y="210" width="20" height="10" fill="#3f51b5" rx="2" ry="2" />
  <circle cx="275" cy="215" r="2" fill="red" />
  
  <!-- Spectrometer Device -->
  <rect x="320" y="200" width="40" height="50" fill="#607d8b" rx="5" ry="5" />
  <rect x="325" y="210" width="30" height="5" fill="#263238" />
  <rect x="325" y="220" width="30" height="5" fill="#263238" />
  <rect x="325" y="230" width="30" height="5" fill="#263238" />
  <rect x="330" y="190" width="20" height="10" fill="#455a64" />
  <ellipse cx="340" cy="185" rx="5" ry="5" fill="#9e9e9e" />
  
  <!-- Data waves -->
  <path d="M120,210 Q130,200 140,210 Q150,220 160,210" stroke="#E0F7FA" stroke-width="2" fill="none" stroke-dasharray="2,2" >
    <animate attributeName="d" values="M120,210 Q130,200 140,210 Q150,220 160,210;M120,208 Q130,198 140,208 Q150,218 160,208;M120,210 Q130,200 140,210 Q150,220 160,210" dur="3s" repeatCount="indefinite" />
  </path>
  
  <path d="M280,210 Q290,200 300,210 Q310,220 320,210" stroke="#E0F7FA" stroke-width="2" fill="none" stroke-dasharray="2,2" >
    <animate attributeName="d" values="M280,210 Q290,200 300,210 Q310,220 320,210;M280,208 Q290,198 300,208 Q310,218 320,208;M280,210 Q290,200 300,210 Q310,220 320,210" dur="3s" repeatCount="indefinite" />
  </path>
  
  <!-- Labels -->
  <text x="200" y="295" font-family="Arial" font-size="14" fill="white" text-anchor="middle">Soil Analysis</text>
  <text x="340" y="245" font-family="Arial" font-size="8" fill="white" text-anchor="middle">Spectrometer</text>
</svg>