<?xml version="1.0" encoding="UTF-8"?>
<svg width="1200" height="400" xmlns="http://www.w3.org/2000/svg">
  <!-- Background gradient -->
  <defs>
    <linearGradient id="bgGradient" x1="0%" y1="0%" x2="100%" y2="100%">
      <stop offset="0%" stop-color="#6f42c1" stop-opacity="0.7" />
      <stop offset="50%" stop-color="#6610f2" stop-opacity="0.6" />
      <stop offset="100%" stop-color="#198754" stop-opacity="0.7" />
    </linearGradient>
    <linearGradient id="farmGradient" x1="0%" y1="0%" x2="100%" y2="100%">
      <stop offset="0%" stop-color="#198754" stop-opacity="0.9" />
      <stop offset="100%" stop-color="#20c997" stop-opacity="0.9" />
    </linearGradient>
    <linearGradient id="healthGradient" x1="0%" y1="0%" x2="100%" y2="100%">
      <stop offset="0%" stop-color="#6f42c1" stop-opacity="0.9" />
      <stop offset="100%" stop-color="#a370f7" stop-opacity="0.9" />
    </linearGradient>
    <linearGradient id="techGradient" x1="0%" y1="0%" x2="100%" y2="100%">
      <stop offset="0%" stop-color="#0d6efd" stop-opacity="0.9" />
      <stop offset="100%" stop-color="#0dcaf0" stop-opacity="0.9" />
    </linearGradient>
  </defs>
  
  <!-- Main background -->
  <rect width="1200" height="400" fill="url(#bgGradient)" />
  
  <!-- Decorative circles -->
  <circle cx="100" cy="80" r="60" fill="#fff" opacity="0.05" />
  <circle cx="1100" cy="320" r="80" fill="#fff" opacity="0.05" />
  <circle cx="300" cy="350" r="40" fill="#fff" opacity="0.05" />
  <circle cx="900" cy="50" r="30" fill="#fff" opacity="0.05" />
  <circle cx="600" cy="200" r="100" fill="#fff" opacity="0.03" />
  
  <!-- Farming hemisphere (left) -->
  <g transform="translate(200, 200)">
    <circle cx="0" cy="0" r="150" fill="url(#farmGradient)" opacity="0.8" />
    
    <!-- Plant Icons -->
    <path d="M-50,-20 C-50,-60 -30,-80 -40,-100" stroke="#fff" stroke-width="3" fill="none" />
    <path d="M-50,-50 C-60,-60 -65,-70 -70,-80" stroke="#fff" stroke-width="2" fill="none" />
    <path d="M-50,-60 C-40,-70 -35,-80 -30,-85" stroke="#fff" stroke-width="2" fill="none" />
    <path d="M-40,-100 L-45,-120 L-35,-105" stroke="#fff" stroke-width="2" fill="none" />
    
    <!-- Soil layers - simplified -->
    <path d="M-100,50 C-50,40 0,60 50,40 C100,20 150,40 150,40 L150,150 L-100,150 Z" fill="#5D4436" opacity="0.6" />
    
    <!-- Sensors -->
    <rect x="-20" y="20" width="10" height="30" fill="#fff" opacity="0.8" />
    <rect x="-25" y="10" width="20" height="10" fill="#fff" opacity="0.9" rx="2" ry="2" />
    <circle cx="-15" cy="15" r="2" fill="#20c997" />
    
    <!-- Data waves -->
    <path d="M-20,10 Q-10,0 0,10 Q10,20 20,10" stroke="#fff" stroke-width="2" fill="none" stroke-dasharray="2,2" opacity="0.7">
      <animate attributeName="d" values="M-20,10 Q-10,0 0,10 Q10,20 20,10;M-20,8 Q-10,-2 0,8 Q10,18 20,8;M-20,10 Q-10,0 0,10 Q10,20 20,10" dur="3s" repeatCount="indefinite" />
    </path>
    
    <text x="0" y="80" font-family="Arial" font-size="16" fill="#fff" text-anchor="middle" font-weight="bold">DIGITAL FARMING</text>
  </g>
  
  <!-- Healthcare hemisphere (right) -->
  <g transform="translate(800, 200)">
    <circle cx="0" cy="0" r="150" fill="url(#healthGradient)" opacity="0.8" />
    
    <!-- Medical cross -->
    <rect x="-60" y="-10" width="120" height="20" fill="#fff" opacity="0.8" rx="5" ry="5" />
    <rect x="-10" y="-60" width="20" height="120" fill="#fff" opacity="0.8" rx="5" ry="5" />
    
    <!-- Heartbeat line -->
    <polyline points="-80,-50 -70,-50 -65,-50 -60,-20 -55,-80 -50,-50 -40,-50 -30,-50" 
            stroke="#fff" stroke-width="3" fill="none" opacity="0.7" transform="scale(0.8)" />
    
    <!-- Cancer cell representation -->
    <circle cx="40" cy="-20" r="15" fill="#fff" opacity="0.5" />
    <circle cx="40" cy="-20" r="12" fill="#ff5252" opacity="0.5" />
    <circle cx="40" cy="-20" r="8" fill="#fff" opacity="0.5" />
    
    <!-- Spectral analysis waves -->
    <path d="M-70,20 C-60,10 -50,30 -40,20 C-30,10 -20,30 -10,20 C0,10 10,30 20,20 C30,10 40,30 50,20 C60,10 70,30 80,20" 
          stroke="#fff" stroke-width="2" fill="none" opacity="0.7" />
    
    <path d="M-70,40 C-60,30 -50,50 -40,40 C-30,30 -20,50 -10,40 C0,30 10,50 20,40 C30,30 40,50 50,40 C60,30 70,50 80,40" 
          stroke="#fff" stroke-width="2" fill="none" opacity="0.7" />
    
    <!-- Animated dot for scanning -->
    <circle cx="-50" cy="20" r="3" fill="#fff">
      <animate attributeName="cx" from="-70" to="80" dur="4s" repeatCount="indefinite" />
      <animate attributeName="cy" values="20;10;30;20;10;30;20" dur="4s" repeatCount="indefinite" />
    </circle>
    
    <text x="0" y="80" font-family="Arial" font-size="16" fill="#fff" text-anchor="middle" font-weight="bold">DIGITAL HEALTHCARE</text>
  </g>
  
  <!-- Central technology hub -->
  <g transform="translate(500, 200)">
    <circle cx="0" cy="0" r="100" fill="url(#techGradient)" opacity="0.8" />
    
    <!-- AI/Tech representation -->
    <rect x="-60" y="-60" width="120" height="120" fill="#fff" opacity="0.1" rx="10" ry="10" />
    <rect x="-50" y="-50" width="100" height="100" fill="#fff" opacity="0.1" rx="5" ry="5" />
    
    <!-- Circuit-like paths -->
    <line x1="-40" y1="-40" x2="40" y2="-40" stroke="#fff" stroke-width="2" opacity="0.7" />
    <line x1="-40" y1="0" x2="40" y2="0" stroke="#fff" stroke-width="2" opacity="0.7" />
    <line x1="-40" y1="40" x2="40" y2="40" stroke="#fff" stroke-width="2" opacity="0.7" />
    <line x1="-40" y1="-40" x2="-40" y2="40" stroke="#fff" stroke-width="2" opacity="0.7" />
    <line x1="0" y1="-40" x2="0" y2="40" stroke="#fff" stroke-width="2" opacity="0.7" />
    <line x1="40" y1="-40" x2="40" y2="40" stroke="#fff" stroke-width="2" opacity="0.7" />
    
    <!-- Connection nodes -->
    <circle cx="-40" cy="-40" r="5" fill="#fff" opacity="0.8" />
    <circle cx="0" cy="-40" r="5" fill="#fff" opacity="0.8" />
    <circle cx="40" cy="-40" r="5" fill="#fff" opacity="0.8" />
    <circle cx="-40" cy="0" r="5" fill="#fff" opacity="0.8" />
    <circle cx="0" cy="0" r="5" fill="#fff" opacity="0.8" />
    <circle cx="40" cy="0" r="5" fill="#fff" opacity="0.8" />
    <circle cx="-40" cy="40" r="5" fill="#fff" opacity="0.8" />
    <circle cx="0" cy="40" r="5" fill="#fff" opacity="0.8" />
    <circle cx="40" cy="40" r="5" fill="#fff" opacity="0.8" />
    
    <!-- Data flow animation -->
    <circle cx="-20" cy="-20" r="3" fill="#0dcaf0">
      <animate attributeName="cx" values="-40;0;40;40;40;0;-40;-40" dur="4s" repeatCount="indefinite" />
      <animate attributeName="cy" values="-40;-40;-40;0;40;40;40;0" dur="4s" repeatCount="indefinite" />
    </circle>
    
    <text x="0" y="80" font-family="Arial" font-size="16" fill="#fff" text-anchor="middle" font-weight="bold">AI TECHNOLOGY</text>
  </g>
  
  <!-- Connecting lines between hemispheres -->
  <line x1="300" y1="200" x2="400" y2="200" stroke="#fff" stroke-width="2" stroke-dasharray="5,5" opacity="0.7" />
  <line x1="600" y1="200" x2="700" y2="200" stroke="#fff" stroke-width="2" stroke-dasharray="5,5" opacity="0.7" />
  
  <!-- Data flow between nodes -->
  <circle cx="350" cy="200" r="4" fill="#fff" opacity="0.8">
    <animate attributeName="cx" values="300;400" dur="2s" repeatCount="indefinite" />
  </circle>
  
  <circle cx="650" cy="200" r="4" fill="#fff" opacity="0.8">
    <animate attributeName="cx" values="600;700" dur="2s" repeatCount="indefinite" />
  </circle>
  
  <!-- Title text -->
  <text x="600" y="50" font-family="Arial" font-size="30" fill="#fff" text-anchor="middle" font-weight="bold">REVE DIGITAL PLATFORM</text>
  <text x="600" y="80" font-family="Arial" font-size="16" fill="#fff" text-anchor="middle">AI-Powered Analysis for Farming and Healthcare</text>
</svg>